# xmcd CD database file
#
# Track frame offsets:
#	150
#	866
#	18771
#	50588
#	91824
#	107290
#	138113
#	178604
#	214756
#	251856
#	298477
#	307426
#
# Disc length: 4129 seconds
#
# Revision: 2
# Processed by: cddbd v1.5.2PL0 Copyright (c) Steve Scherf et al.
# Submitted via: CDex 1.70beta2
#
DISCID=a1101f0c
DTITLE=Ugo Riccarelli - Der vollkommene Schmerz
DYEAR=2007
DGENRE=Hörbuch
TTITLE0=70
TTITLE1=71
TTITLE2=72
TTITLE3=73
TTITLE4=74
TTITLE5=75
TTITLE6=76
TTITLE7=77
TTITLE8=78
TTITLE9=79
TTITLE10=80
TTITLE11=81
EXTD=YEAR: 2007
EXTT0=
EXTT1=
EXTT2=
EXTT3=
EXTT4=
EXTT5=
EXTT6=
EXTT7=
EXTT8=
EXTT9=
EXTT10=
EXTT11=
PLAYORDER=
